<svg width="24" height="24" viewBox="0 0 24 24" fill="none" xmlns="http://www.w3.org/2000/svg">
  <path d="M6.25 7.5H8.55L9.7 5.7C10.02 5.2 10.57 4.9 11.16 4.9H12.84C13.43 4.9 13.98 5.2 14.3 5.7L15.45 7.5H17.75C18.99 7.5 20 8.51 20 9.75V17.25C20 18.49 18.99 19.5 17.75 19.5H6.25C5.01 19.5 4 18.49 4 17.25V9.75C4 8.51 5.01 7.5 6.25 7.5Z" stroke="#DA5B87" stroke-width="1.8" stroke-linejoin="round"/>
  <circle cx="12" cy="13" r="3.25" stroke="#DA5B87" stroke-width="1.8"/>
  <path d="M12 11.7C12.45 11.25 13.18 11.25 13.63 11.7C14.08 12.14 14.08 12.86 13.63 13.3L12.5 14.41C12.22 14.69 11.78 14.69 11.5 14.41L10.37 13.3C9.92 12.86 9.92 12.14 10.37 11.7C10.82 11.25 11.55 11.25 12 11.7Z" fill="#F08DB1"/>
</svg>
