<svg width="24" height="24" viewBox="0 0 24 24" fill="none" xmlns="http://www.w3.org/2000/svg">
  <path d="M12 19.75L5.62 13.52C3.96 11.91 3.96 9.3 5.62 7.69C7.27 6.08 9.96 6.08 11.61 7.69L12 8.07L12.39 7.69C14.04 6.08 16.73 6.08 18.38 7.69C20.04 9.3 20.04 11.91 18.38 13.52L12 19.75Z" stroke="#DA5B87" stroke-width="1.8" stroke-linejoin="round"/>
  <path d="M6 5.25L6.36 6.05L7.25 6.19L6.61 6.8L6.76 7.69L6 7.3L5.24 7.69L5.39 6.8L4.75 6.19L5.64 6.05L6 5.25Z" fill="#F08DB1"/>
  <path d="M18.5 14.75L18.79 15.37L19.5 15.49L18.99 15.98L19.11 16.69L18.5 16.36L17.89 16.69L18.01 15.98L17.5 15.49L18.21 15.37L18.5 14.75Z" fill="#F08DB1"/>
</svg>
