<svg width="24" height="24" viewBox="0 0 24 24" fill="none" xmlns="http://www.w3.org/2000/svg">
  <path d="M7 10.25C7 7.35 9.35 5 12.25 5C15.15 5 17.5 7.35 17.5 10.25V12.84C17.5 13.67 17.79 14.47 18.32 15.11L19.1 16.05C19.78 16.88 19.19 18.12 18.11 18.12H6.39C5.31 18.12 4.72 16.88 5.4 16.05L6.18 15.11C6.71 14.47 7 13.67 7 12.84V10.25Z" stroke="#DA5B87" stroke-width="1.8" stroke-linejoin="round"/>
  <path d="M10 19C10.39 20.15 11.34 20.75 12.25 20.75C13.16 20.75 14.11 20.15 14.5 19" stroke="#DA5B87" stroke-width="1.8" stroke-linecap="round"/>
  <path d="M17.85 5.35C18.3 4.9 19.03 4.9 19.48 5.35C19.93 5.79 19.93 6.51 19.48 6.95L18.35 8.06C18.07 8.34 17.63 8.34 17.35 8.06L16.22 6.95C15.77 6.51 15.77 5.79 16.22 5.35C16.67 4.9 17.4 4.9 17.85 5.35Z" fill="#F08DB1"/>
</svg>
