<svg width="24" height="24" viewBox="0 0 24 24" fill="none" xmlns="http://www.w3.org/2000/svg">
  <path d="M12 4.5L13.18 6.17C13.42 6.51 13.84 6.68 14.25 6.6L16.26 6.2L16.52 8.24C16.57 8.64 16.84 8.98 17.22 9.13L19.12 9.88L18.09 11.66C17.88 12.02 17.88 12.47 18.09 12.84L19.12 14.62L17.22 15.37C16.84 15.52 16.57 15.86 16.52 16.26L16.26 18.3L14.25 17.9C13.84 17.82 13.42 17.99 13.18 18.33L12 20L10.82 18.33C10.58 17.99 10.16 17.82 9.75 17.9L7.74 18.3L7.48 16.26C7.43 15.86 7.16 15.52 6.78 15.37L4.88 14.62L5.91 12.84C6.12 12.47 6.12 12.02 5.91 11.66L4.88 9.88L6.78 9.13C7.16 8.98 7.43 8.64 7.48 8.24L7.74 6.2L9.75 6.6C10.16 6.68 10.58 6.51 10.82 6.17L12 4.5Z" stroke="#DA5B87" stroke-width="1.5" stroke-linejoin="round"/>
  <circle cx="12" cy="12.25" r="3.1" stroke="#DA5B87" stroke-width="1.8"/>
  <path d="M12 10.9C12.46 10.45 13.2 10.45 13.66 10.9C14.11 11.35 14.11 12.08 13.66 12.53L12.52 13.64C12.24 13.92 11.79 13.92 11.51 13.64L10.37 12.53C9.92 12.08 9.92 11.35 10.37 10.9C10.83 10.45 11.57 10.45 12 10.9Z" fill="#F08DB1"/>
</svg>
