<?xml version="1.0" encoding="UTF-8" ?>
<!DOCTYPE svg PUBLIC "-//W3C//DTD SVG 1.1//EN" "http://www.w3.org/Graphics/SVG/1.1/DTD/svg11.dtd">
<svg width="1254pt" height="1254pt" viewBox="0 0 1254 1254" version="1.1" xmlns="http://www.w3.org/2000/svg">
<g id="#fefbfcff">
<path fill="#fefbfc" opacity="1.00" d=" M 0.00 0.00 L 1254.00 0.00 L 1254.00 1254.00 L 0.00 1254.00 L 0.00 0.00 M 166.00 43.14 C 117.27 66.71 76.12 105.89 50.83 153.81 C 34.49 184.52 23.54 218.37 20.49 253.10 C 19.64 262.74 19.96 272.41 19.89 282.07 C 19.90 510.73 19.87 739.39 19.88 968.05 C 20.05 985.02 19.11 1002.12 21.95 1018.94 C 28.27 1064.03 49.19 1106.15 77.76 1141.26 C 89.32 1155.01 102.10 1167.73 116.14 1178.96 C 143.73 1200.89 175.90 1217.08 209.95 1226.20 C 217.70 1228.10 225.43 1230.40 233.42 1231.00 L 233.57 1231.42 C 239.34 1232.17 245.13 1232.77 250.93 1233.33 C 235.75 1197.67 224.23 1160.34 218.17 1122.02 C 207.85 1055.28 216.03 986.06 240.05 923.04 C 265.79 856.40 308.92 796.45 364.41 751.39 C 425.94 701.63 501.32 668.61 580.02 659.16 C 659.68 648.56 742.16 663.29 813.99 699.03 C 884.36 733.66 944.17 788.86 985.47 855.43 C 1005.39 888.32 1021.30 923.78 1031.01 961.04 C 1044.10 1008.87 1047.71 1059.21 1042.07 1108.46 C 1037.31 1151.53 1024.99 1193.49 1008.39 1233.42 C 1014.06 1232.96 1019.69 1232.05 1025.33 1231.28 L 1025.55 1230.74 C 1032.98 1230.38 1040.09 1228.00 1047.29 1226.30 C 1065.64 1221.21 1083.55 1214.35 1100.27 1205.20 C 1131.40 1188.57 1158.15 1164.51 1180.11 1137.04 C 1189.83 1124.19 1198.87 1110.78 1206.51 1096.57 C 1224.61 1063.10 1234.91 1025.16 1234.45 987.01 C 1234.51 752.66 1234.44 518.31 1234.47 283.95 C 1234.40 272.96 1234.75 261.95 1233.83 250.99 C 1231.96 229.02 1226.91 207.36 1219.24 186.70 C 1207.19 154.77 1189.32 124.95 1166.05 99.93 C 1131.70 62.46 1085.61 35.91 1035.87 25.30 C 1020.19 21.82 1004.08 20.47 988.04 20.77 C 744.69 20.78 501.34 20.78 257.99 20.80 C 226.15 21.31 194.78 29.79 166.00 43.14 M 432.30 882.46 C 405.19 883.56 380.20 901.25 368.46 925.43 C 358.16 946.57 356.87 971.47 362.84 994.05 C 369.04 1016.04 383.92 1036.31 404.95 1046.06 C 434.64 1060.71 473.75 1052.33 494.75 1026.70 C 504.81 1014.91 510.66 1000.04 513.18 984.86 C 515.86 966.33 514.90 946.79 507.48 929.40 C 502.53 917.71 494.82 907.16 485.00 899.09 C 470.30 887.29 451.16 880.92 432.30 882.46 M 809.17 884.30 C 789.82 886.25 771.59 896.25 759.12 911.11 C 744.93 927.82 738.63 950.27 739.50 971.97 C 740.14 993.56 747.45 1015.63 762.39 1031.58 C 773.72 1043.90 789.50 1051.92 806.05 1054.20 C 829.74 1057.39 855.42 1049.61 871.65 1031.63 C 884.24 1018.46 891.30 1000.83 893.87 982.97 C 896.75 962.96 894.11 941.75 884.42 923.83 C 876.71 909.16 864.02 897.19 848.98 890.26 C 836.67 884.40 822.61 882.94 809.17 884.30 M 611.25 1020.32 C 608.86 1023.13 608.68 1027.41 610.46 1030.58 C 612.96 1035.04 616.81 1038.60 621.10 1041.31 C 622.14 1053.21 615.41 1065.32 604.91 1070.94 C 594.27 1077.14 578.54 1073.43 572.80 1062.24 C 570.85 1058.82 571.30 1053.66 567.15 1051.86 C 562.37 1049.36 556.19 1053.70 556.82 1059.04 C 557.74 1064.83 560.76 1070.08 564.20 1074.75 C 571.47 1084.47 584.07 1089.12 595.96 1088.51 C 602.53 1088.23 608.75 1085.71 614.42 1082.52 C 619.72 1079.34 623.44 1074.27 627.52 1069.74 C 630.83 1074.53 634.61 1079.20 639.63 1082.29 C 648.48 1087.55 659.27 1090.15 669.42 1087.67 C 683.10 1084.88 694.40 1073.52 697.46 1059.99 C 698.43 1054.68 692.86 1049.62 687.73 1051.72 C 683.76 1053.11 683.48 1057.72 682.12 1061.06 C 677.40 1070.68 665.43 1076.45 655.06 1073.10 C 641.49 1069.38 631.91 1055.20 633.07 1041.28 C 636.91 1038.49 640.71 1035.46 643.49 1031.57 C 646.24 1027.83 645.96 1021.88 642.07 1019.04 C 636.66 1015.08 629.54 1015.05 623.15 1015.57 C 618.91 1016.07 614.02 1016.67 611.25 1020.32 M 343.34 1039.62 C 326.63 1039.85 309.58 1042.84 294.78 1050.89 C 286.97 1055.42 279.02 1061.72 276.89 1070.96 C 275.17 1077.88 278.23 1085.07 283.10 1089.97 C 292.35 1099.44 305.27 1104.11 317.97 1106.76 C 337.88 1110.63 358.79 1110.19 378.25 1104.21 C 389.38 1100.79 400.48 1095.18 407.35 1085.45 C 411.28 1079.90 411.98 1072.16 408.70 1066.15 C 404.79 1058.69 397.75 1053.38 390.30 1049.77 C 375.69 1042.77 359.43 1039.98 343.34 1039.62 M 899.51 1040.71 C 884.78 1043.13 869.58 1047.18 857.86 1056.89 C 851.76 1062.26 846.77 1070.67 849.05 1079.03 C 850.33 1084.82 854.47 1089.38 858.82 1093.18 C 864.85 1098.46 872.45 1101.46 879.94 1104.03 C 891.58 1107.77 903.84 1109.02 916.00 1109.44 C 931.44 1109.14 947.10 1106.70 961.22 1100.21 C 970.00 1096.01 978.91 1089.90 982.19 1080.28 C 983.47 1074.86 982.97 1068.80 979.80 1064.09 C 974.57 1056.18 966.02 1051.34 957.57 1047.54 C 939.27 1040.13 919.01 1038.42 899.51 1040.71 M 348.47 1140.44 C 320.76 1162.77 303.19 1198.44 305.72 1234.31 C 310.64 1234.33 315.55 1234.30 320.46 1234.29 C 317.88 1204.44 331.86 1174.65 353.93 1154.94 C 371.16 1139.95 393.16 1130.40 415.97 1128.60 C 454.75 1125.36 494.76 1146.47 513.12 1180.94 C 521.63 1197.22 526.23 1215.87 524.10 1234.27 C 529.08 1234.26 534.06 1234.27 539.04 1234.12 C 541.08 1208.76 533.24 1183.04 518.71 1162.30 C 507.73 1147.00 493.00 1134.38 476.13 1126.00 C 456.21 1115.72 433.15 1111.78 410.92 1114.40 C 388.08 1116.44 366.23 1126.07 348.47 1140.44 M 764.91 1133.86 C 732.23 1155.61 712.34 1195.06 714.65 1234.30 C 719.59 1234.27 724.53 1234.24 729.47 1234.28 C 726.44 1198.86 745.42 1162.94 775.64 1144.52 C 791.50 1134.35 810.23 1129.00 829.01 1128.38 C 867.40 1127.46 905.68 1149.56 923.19 1183.91 C 931.10 1199.29 935.85 1216.95 933.72 1234.31 C 938.67 1234.31 943.62 1234.28 948.58 1234.39 C 949.61 1219.57 947.88 1204.48 942.41 1190.61 C 931.35 1161.42 908.36 1137.09 879.92 1124.25 C 843.38 1107.29 798.10 1110.93 764.91 1133.86 M 397.15 1211.92 C 397.28 1219.50 399.67 1226.83 400.77 1234.31 C 404.24 1234.24 407.72 1234.22 411.19 1234.22 C 408.97 1226.30 407.86 1218.12 405.69 1210.20 C 404.10 1205.91 397.13 1207.45 397.15 1211.92 M 452.41 1210.28 C 450.53 1218.27 448.88 1226.33 447.06 1234.34 C 450.65 1234.32 454.23 1234.27 457.82 1234.19 C 458.80 1226.47 461.34 1218.87 461.01 1211.05 C 460.37 1206.82 453.76 1206.27 452.41 1210.28 M 794.58 1208.56 C 792.66 1210.12 793.19 1212.85 793.31 1215.01 C 794.12 1221.51 795.64 1227.90 796.72 1234.36 C 800.15 1234.31 803.58 1234.29 807.01 1234.27 C 805.28 1226.47 804.15 1218.55 802.10 1210.83 C 801.37 1207.61 796.96 1206.25 794.58 1208.56 M 850.74 1208.67 C 849.19 1209.63 848.68 1211.50 848.24 1213.16 C 846.54 1220.20 845.15 1227.31 843.48 1234.37 C 846.99 1234.32 850.51 1234.29 854.03 1234.25 C 855.04 1228.49 856.23 1222.77 857.14 1217.00 C 857.40 1214.76 857.85 1212.39 857.01 1210.24 C 855.80 1208.06 852.81 1207.47 850.74 1208.67 Z" />
<path fill="#fefbfc" opacity="1.00" d=" M 599.28 162.33 C 607.92 158.97 617.96 165.94 618.78 174.92 C 619.83 183.03 613.15 191.29 604.90 191.60 C 597.15 192.22 589.64 185.84 589.15 178.05 C 588.28 171.27 592.64 164.23 599.28 162.33 Z" />
<path fill="#fefbfc" opacity="1.00" d=" M 960.52 197.32 C 961.16 195.05 963.84 193.90 966.03 194.64 C 967.83 195.76 968.60 197.85 969.67 199.58 C 971.91 198.32 974.42 196.96 977.09 197.72 C 979.95 199.12 980.05 203.02 978.37 205.39 C 975.08 210.55 969.12 212.89 964.58 216.72 C 962.58 214.78 962.11 211.99 961.41 209.44 C 960.34 205.51 959.70 201.35 960.52 197.32 Z" />
<path fill="#fefbfc" opacity="1.00" d=" M 1005.48 215.42 C 1006.58 212.80 1011.48 214.04 1010.66 217.04 C 1009.37 223.14 1006.88 229.60 1009.23 235.79 C 1010.48 239.70 1014.99 241.18 1016.42 245.00 C 1012.41 247.87 1007.04 246.39 1002.84 248.83 C 998.76 250.48 996.27 254.26 992.88 256.84 C 991.01 258.51 987.94 256.29 988.44 254.02 C 989.02 249.38 990.73 244.57 988.99 239.96 C 988.04 236.62 985.43 234.23 983.04 231.88 C 981.56 230.76 982.37 228.77 982.21 227.22 C 986.54 226.17 991.25 227.49 995.35 225.38 C 999.95 223.57 1003.08 219.58 1005.48 215.42 Z" />
<path fill="#fefbfc" opacity="1.00" d=" M 689.39 298.43 C 698.26 297.41 704.11 309.07 698.97 315.99 C 694.90 322.50 684.29 322.14 680.37 315.68 C 676.61 308.82 681.29 298.93 689.39 298.43 Z" />
<path fill="#fefbfc" opacity="1.00" d=" M 284.45 305.99 C 283.82 303.08 288.35 302.07 289.71 304.28 C 292.61 308.30 295.57 313.35 300.96 314.12 C 303.80 314.61 308.14 312.97 308.91 316.98 C 306.18 319.89 303.07 322.91 302.36 327.03 C 301.76 329.85 302.46 332.72 303.46 335.37 C 302.48 337.00 300.62 338.68 298.65 337.45 C 296.06 334.39 294.33 330.16 290.20 328.83 C 286.28 327.09 280.75 330.39 278.10 326.04 C 280.75 322.76 285.00 320.50 285.89 316.07 C 287.08 312.63 285.15 309.29 284.45 305.99 M 288.34 323.16 C 291.68 323.18 294.48 325.00 297.06 326.91 C 297.28 324.23 298.06 321.67 299.49 319.40 C 296.52 318.66 293.79 317.25 291.55 315.17 C 290.92 317.99 289.94 320.73 288.34 323.16 Z" />
<path fill="#fefbfc" opacity="1.00" d=" M 650.19 314.13 C 653.09 312.29 656.76 314.49 657.42 317.63 C 659.52 324.58 661.65 331.85 666.62 337.36 C 670.92 341.71 677.14 342.98 682.44 345.64 C 684.45 346.55 686.05 348.71 685.41 351.01 C 684.72 353.98 681.60 355.09 679.11 356.15 C 674.16 358.08 669.07 360.36 665.59 364.54 C 661.31 369.66 659.82 376.33 657.35 382.38 C 656.40 385.17 653.05 387.49 650.21 385.80 C 647.47 384.64 647.00 381.39 646.15 378.90 C 644.30 372.30 641.73 365.24 635.88 361.14 C 631.61 357.90 626.28 356.75 621.58 354.35 C 618.14 352.74 617.88 347.03 621.57 345.55 C 627.36 342.83 634.12 341.54 638.65 336.68 C 643.25 331.54 645.06 324.70 647.38 318.37 C 648.02 316.81 648.56 314.95 650.19 314.13 Z" />
<path fill="#fefbfc" opacity="1.00" d=" M 797.92 364.99 C 803.77 353.40 809.82 341.88 816.90 330.98 C 815.79 338.58 816.27 346.28 815.57 353.91 C 817.80 366.92 824.75 378.70 833.40 388.49 C 846.31 402.74 863.18 412.79 880.79 420.17 C 897.11 426.58 914.36 431.18 931.96 431.76 C 947.91 432.26 964.29 427.72 976.93 417.78 C 982.32 413.27 987.60 408.53 991.77 402.82 C 995.60 398.09 998.57 392.74 1002.28 387.91 C 995.30 442.35 978.45 494.95 959.22 546.17 C 936.56 605.79 908.61 663.44 875.02 717.67 C 856.64 703.64 836.14 692.62 815.44 682.43 C 787.79 669.34 758.81 658.94 728.99 652.03 C 724.78 650.53 720.10 652.11 716.08 649.89 C 718.58 631.23 720.75 612.51 724.21 594.00 C 731.91 553.15 741.86 512.70 754.49 473.09 C 766.48 436.13 780.29 399.67 797.92 364.99 Z" />
<path fill="#fefbfc" opacity="1.00" d=" M 331.31 337.90 C 332.06 336.34 333.94 336.50 335.36 336.18 C 336.78 339.06 337.99 342.03 339.02 345.07 C 340.95 344.31 342.85 343.42 344.91 343.08 C 346.49 343.22 346.97 345.02 347.92 346.01 C 345.84 348.15 343.11 349.39 340.44 350.62 C 341.35 353.05 342.61 355.45 342.70 358.10 C 341.82 359.03 340.91 359.91 339.96 360.76 C 337.43 359.06 336.68 356.09 335.98 353.31 C 333.55 354.11 331.19 355.15 328.70 355.72 C 326.46 356.08 325.37 353.13 326.60 351.54 C 328.80 349.93 331.45 349.09 333.93 348.01 C 333.18 344.61 331.61 341.37 331.31 337.90 Z" />
<path fill="#fefbfc" opacity="1.00" d=" M 249.87 355.37 C 251.33 354.95 252.94 353.49 254.46 354.55 C 257.54 357.47 259.72 361.28 263.24 363.76 C 269.07 368.40 276.77 370.03 284.07 368.99 C 286.34 368.30 287.65 370.30 288.74 371.90 C 284.51 376.46 279.55 380.88 278.23 387.27 C 276.24 393.19 279.55 398.87 281.68 404.22 C 280.36 405.49 278.62 407.91 276.55 406.47 C 273.75 403.93 271.85 400.47 268.63 398.36 C 263.83 395.02 257.69 394.77 252.08 395.51 C 249.98 395.69 247.88 395.85 245.78 396.01 C 244.54 391.22 249.98 388.44 250.80 384.03 C 253.13 376.12 253.00 367.71 250.69 359.82 C 250.38 358.34 250.10 356.86 249.87 355.37 M 257.64 366.77 C 259.59 374.62 257.87 382.85 253.61 389.64 C 260.11 388.42 267.06 389.73 272.32 393.85 C 271.19 387.03 273.53 380.10 278.46 375.30 C 270.75 374.96 263.60 371.52 257.64 366.77 Z" />
<path fill="#fefbfc" opacity="1.00" d=" M 432.82 399.76 C 447.90 419.55 460.37 441.19 471.79 463.26 C 498.63 516.25 518.64 572.52 533.61 629.95 C 535.25 637.05 536.72 644.20 538.46 651.28 C 536.61 651.36 534.76 651.43 532.96 651.87 C 468.17 666.73 406.95 696.89 355.56 739.03 C 355.68 740.96 355.82 742.91 355.59 744.84 C 355.33 744.81 354.80 744.74 354.54 744.71 C 351.26 740.43 348.60 735.70 345.92 731.03 C 325.77 697.01 308.24 661.45 293.31 624.85 C 276.80 583.97 263.68 541.53 257.10 497.87 C 258.12 502.26 260.91 505.85 263.30 509.57 C 270.06 520.24 279.01 529.48 289.37 536.70 C 305.55 547.79 325.80 552.04 345.19 550.35 C 365.63 548.60 385.57 542.22 403.65 532.61 C 416.00 525.92 427.50 517.11 435.70 505.57 C 446.17 491.34 450.47 473.05 448.71 455.57 C 447.99 443.40 445.33 431.43 441.54 419.87 C 439.85 412.63 434.54 406.99 432.82 399.76 Z" />
<path fill="#fefbfc" opacity="1.00" d=" M 283.70 437.61 C 287.03 435.79 288.14 440.70 289.72 442.69 C 291.73 441.93 294.64 438.97 296.47 441.53 C 298.34 444.83 293.80 446.35 291.80 448.00 C 292.81 450.36 294.05 452.65 294.67 455.15 C 294.99 456.96 292.87 457.63 291.90 458.73 C 289.15 456.77 288.28 453.40 286.95 450.48 C 283.81 451.82 280.70 453.24 277.70 454.86 C 276.78 453.61 275.86 452.34 275.13 450.98 C 278.19 449.06 281.30 447.20 284.34 445.24 C 283.49 442.92 280.72 439.53 283.70 437.61 Z" />
<path fill="#fefbfc" opacity="1.00" d=" M 164.40 523.41 C 168.62 523.19 171.32 527.24 172.29 530.88 C 174.74 539.39 177.49 548.00 182.51 555.40 C 186.85 561.40 192.71 566.30 199.41 569.45 C 204.15 571.90 209.32 573.39 214.02 575.92 C 217.36 577.66 219.23 582.10 217.53 585.60 C 216.29 588.38 213.24 589.48 210.65 590.63 C 203.35 593.62 195.85 596.57 189.77 601.75 C 179.59 609.55 176.32 622.64 172.15 634.13 C 171.02 637.95 167.17 641.17 163.03 640.26 C 159.32 639.72 157.31 636.16 156.25 632.92 C 153.28 623.83 149.97 614.60 144.12 606.91 C 139.19 600.42 131.50 597.11 124.39 593.64 C 120.17 591.49 114.99 590.93 111.54 587.47 C 107.86 583.59 110.34 576.84 115.03 575.07 C 123.56 571.73 132.38 568.40 139.53 562.50 C 149.19 553.81 152.83 540.91 157.07 529.10 C 158.04 525.87 160.90 523.28 164.40 523.41 Z" />
<path fill="#fefbfc" opacity="1.00" d=" M 1058.34 563.38 C 1067.23 561.26 1076.40 568.99 1076.39 577.98 C 1076.76 586.48 1068.44 594.02 1060.00 592.76 C 1052.40 592.39 1046.27 585.48 1046.34 577.97 C 1046.17 571.05 1051.69 564.78 1058.34 563.38 Z" />
<path fill="#fefbfc" opacity="1.00" d=" M 428.98 910.59 C 434.66 917.84 439.00 926.06 445.10 933.00 C 453.25 942.17 461.79 951.17 471.89 958.23 C 478.50 963.24 485.77 967.25 493.07 971.13 C 469.76 985.80 450.40 1006.77 438.38 1031.61 C 430.65 1015.37 418.29 1001.73 404.12 990.84 C 395.63 985.14 387.04 979.38 377.39 975.82 C 380.04 972.50 384.35 971.29 387.61 968.70 C 399.71 961.04 409.72 950.42 417.63 938.56 C 423.32 930.12 426.18 920.26 428.98 910.59 M 424.47 946.08 C 421.65 946.26 416.33 945.73 416.74 950.00 C 417.84 953.88 422.29 952.00 425.10 951.70 C 425.51 954.30 425.71 956.96 426.57 959.48 C 427.79 961.28 430.69 961.11 431.50 959.00 C 431.73 956.27 431.27 953.55 431.06 950.85 C 433.55 950.46 438.63 950.06 437.58 946.35 C 436.20 943.58 432.89 945.05 430.60 945.40 C 430.16 942.66 431.13 938.86 428.11 937.37 C 423.24 937.12 424.57 942.99 424.47 946.08 M 407.55 964.78 C 407.65 966.06 407.75 967.35 407.86 968.65 C 406.50 968.65 405.16 968.66 403.81 968.68 C 403.21 969.84 401.41 971.16 402.56 972.58 C 403.70 974.91 406.51 974.16 408.62 974.36 C 409.20 977.68 408.73 981.85 412.15 983.80 C 416.02 981.89 414.37 977.43 414.36 974.04 C 416.42 973.80 420.02 973.33 419.61 970.44 C 418.78 967.78 415.76 968.59 413.68 968.50 C 413.07 967.03 413.09 965.15 411.81 964.09 C 410.54 962.75 408.84 964.37 407.55 964.78 M 439.96 978.96 C 441.80 984.87 444.54 990.47 446.84 996.21 C 447.41 997.96 448.99 999.88 451.03 999.52 C 454.14 997.91 456.10 994.87 458.56 992.49 C 462.11 988.69 466.90 985.43 468.08 980.04 C 469.23 976.49 465.34 972.92 461.89 973.80 C 458.92 974.27 456.51 976.18 454.14 977.88 C 451.40 975.23 448.00 972.63 443.94 973.16 C 441.05 973.02 438.87 976.30 439.96 978.96 Z" />
<path fill="#fefbfc" opacity="1.00" d=" M 815.69 921.68 C 817.50 917.93 818.43 913.80 820.64 910.24 C 824.99 918.13 829.05 926.25 834.45 933.50 C 840.28 940.96 845.70 948.85 852.93 955.08 C 859.66 961.94 867.81 967.12 876.07 971.94 C 851.70 985.66 832.46 1007.38 819.94 1032.23 C 815.44 1026.20 812.34 1019.25 807.69 1013.32 C 796.54 997.98 781.02 985.96 763.63 978.49 C 762.23 977.84 760.98 976.92 759.77 976.04 C 777.60 968.08 793.08 955.42 805.15 940.14 C 809.66 934.60 812.61 928.06 815.69 921.68 M 813.33 946.35 C 809.95 946.55 805.88 946.28 804.25 949.94 C 806.07 953.44 809.94 952.80 813.23 952.54 C 813.30 955.85 812.66 959.81 815.93 961.89 C 820.52 960.45 819.07 955.36 819.13 951.72 C 821.11 951.24 823.11 950.76 825.10 950.27 C 825.45 949.67 826.16 948.46 826.51 947.86 C 824.98 945.06 821.86 945.52 819.16 945.62 C 819.03 943.07 820.08 937.91 816.11 938.20 C 812.16 938.65 813.63 943.66 813.33 946.35 M 792.47 969.05 C 789.86 968.90 787.39 969.46 786.15 972.01 C 787.59 974.71 790.48 974.90 793.22 974.83 C 793.47 977.87 792.37 983.46 796.98 983.51 C 800.30 981.76 798.42 977.42 798.86 974.45 C 801.05 974.41 803.67 974.41 804.67 972.01 C 804.75 968.71 801.04 968.36 798.68 969.27 C 798.22 967.45 798.67 964.07 796.01 964.17 C 793.03 963.61 793.13 967.12 792.47 969.05 M 823.74 980.94 C 825.48 986.58 827.83 992.03 829.38 997.75 C 829.84 1000.23 833.34 1000.66 834.86 998.89 C 839.77 994.14 845.20 989.79 849.21 984.19 C 850.59 982.09 852.15 979.65 851.57 977.03 C 850.71 974.91 848.36 973.03 845.99 973.89 C 842.90 974.77 840.40 976.91 837.91 978.84 C 835.50 976.34 832.87 973.08 829.01 973.39 C 825.05 972.95 822.42 977.46 823.74 980.94 Z" />
<path fill="#fefbfc" opacity="1.00" d=" M 444.94 977.68 C 448.43 979.80 451.12 982.90 453.86 985.87 C 456.74 983.56 458.95 979.65 462.94 979.30 C 459.46 984.04 455.13 988.06 451.12 992.34 C 449.52 987.26 446.98 982.58 444.94 977.68 Z" />
<path fill="#fefbfc" opacity="1.00" d=" M 828.89 978.53 C 833.01 979.32 834.76 983.64 837.70 986.17 C 840.16 983.58 842.70 981.05 845.63 979.00 C 845.70 981.29 843.69 982.73 842.28 984.24 C 839.29 986.97 836.36 989.78 833.76 992.89 C 832.24 988.07 830.24 983.41 828.89 978.53 Z" />
</g>
<g id="#fccce2ff">
<path fill="#fccce2" opacity="1.00" d=" M 166.00 43.14 C 194.78 29.79 226.15 21.31 257.99 20.80 C 501.34 20.78 744.69 20.78 988.04 20.77 C 1004.08 20.47 1020.19 21.82 1035.87 25.30 C 1085.61 35.91 1131.70 62.46 1166.05 99.93 C 1189.32 124.95 1207.19 154.77 1219.24 186.70 C 1226.91 207.36 1231.96 229.02 1233.83 250.99 C 1234.75 261.95 1234.40 272.96 1234.47 283.95 C 1234.44 518.31 1234.51 752.66 1234.45 987.01 C 1234.91 1025.16 1224.61 1063.10 1206.51 1096.57 C 1198.87 1110.78 1189.83 1124.19 1180.11 1137.04 C 1158.15 1164.51 1131.40 1188.57 1100.27 1205.20 C 1083.55 1214.35 1065.64 1221.21 1047.29 1226.30 C 1040.09 1228.00 1032.98 1230.38 1025.55 1230.74 C 1040.86 1192.36 1052.05 1152.15 1056.73 1111.03 C 1064.08 1050.38 1057.17 988.22 1037.54 930.42 C 1025.54 896.07 1009.23 863.24 988.93 833.04 C 966.21 798.93 938.25 768.47 907.24 741.76 C 904.17 739.08 902.09 735.18 898.14 733.65 C 894.05 731.81 890.34 729.27 886.73 726.64 C 923.58 668.66 952.90 606.12 976.76 541.76 C 987.12 513.60 996.64 485.08 1004.02 455.98 C 1010.87 429.20 1016.34 401.98 1018.55 374.38 C 1019.05 368.42 1019.14 362.22 1021.82 356.73 C 1024.39 351.32 1025.33 345.32 1027.88 339.91 C 1030.10 335.12 1032.08 330.22 1034.03 325.31 C 1034.49 325.40 1035.40 325.58 1035.85 325.68 C 1036.49 319.39 1038.44 313.37 1039.49 307.16 C 1042.64 289.59 1045.19 271.83 1045.20 253.95 C 1045.37 236.52 1043.55 218.87 1037.82 202.33 C 1032.53 186.37 1022.89 171.70 1009.56 161.34 C 996.26 151.19 979.85 144.90 963.05 144.53 C 945.39 143.63 927.90 148.97 912.63 157.62 C 888.21 171.63 868.71 192.77 852.62 215.59 C 841.08 232.17 831.37 250.00 823.33 268.53 C 821.59 272.21 819.26 275.69 818.63 279.80 C 817.22 287.05 816.01 294.57 811.96 300.91 C 813.02 302.65 814.10 304.38 815.20 306.12 C 795.18 334.35 779.78 365.53 766.33 397.33 C 751.00 433.94 738.27 471.64 728.05 509.99 C 716.34 552.96 707.09 596.69 702.31 641.00 C 702.19 643.00 702.26 645.03 702.36 647.05 C 696.18 643.06 688.65 643.63 681.65 643.42 C 644.59 639.10 606.90 639.17 570.01 644.97 C 568.09 645.24 566.17 644.94 564.28 644.69 C 561.09 647.40 556.78 647.70 552.90 648.74 C 544.59 607.83 531.74 567.97 517.01 528.96 C 498.09 479.28 474.96 430.70 442.91 388.07 C 441.34 385.79 440.41 383.17 439.45 380.60 C 437.67 375.63 434.82 371.15 432.84 366.26 C 430.66 360.93 428.09 355.76 425.38 350.69 C 423.84 347.69 421.04 345.65 419.15 342.92 C 408.15 325.70 395.72 309.28 381.03 295.03 C 366.14 280.68 348.82 268.15 328.94 261.86 C 307.81 254.99 283.92 256.77 264.25 267.20 C 247.74 275.74 234.85 290.33 227.05 307.08 C 221.79 318.09 218.74 330.03 216.98 342.07 C 213.68 362.87 214.90 384.10 217.72 404.87 C 221.03 429.75 228.32 453.86 236.50 477.51 C 237.12 479.50 238.77 480.83 240.24 482.21 C 244.55 525.40 255.71 567.69 270.75 608.33 C 289.65 658.21 312.93 706.50 341.17 751.77 C 342.20 753.34 342.63 755.21 342.65 757.09 C 341.39 755.88 340.17 754.67 338.95 753.45 C 336.41 755.40 334.05 757.57 331.97 760.02 C 328.72 763.78 324.46 766.49 321.10 770.15 C 271.54 821.11 233.61 883.95 214.54 952.61 C 198.00 1009.96 194.41 1071.03 204.36 1129.90 C 208.59 1154.67 215.08 1179.02 223.16 1202.81 C 226.20 1212.34 230.25 1221.51 233.42 1231.00 C 225.43 1230.40 217.70 1228.10 209.95 1226.20 C 175.90 1217.08 143.73 1200.89 116.14 1178.96 C 102.10 1167.73 89.32 1155.01 77.76 1141.26 C 49.19 1106.15 28.27 1064.03 21.95 1018.94 C 19.11 1002.12 20.05 985.02 19.88 968.05 C 19.87 739.39 19.90 510.73 19.89 282.07 C 19.96 272.41 19.64 262.74 20.49 253.10 C 23.54 218.37 34.49 184.52 50.83 153.81 C 76.12 105.89 117.27 66.71 166.00 43.14 M 599.28 162.33 C 592.64 164.23 588.28 171.27 589.15 178.05 C 589.64 185.84 597.15 192.22 604.90 191.60 C 613.15 191.29 619.83 183.03 618.78 174.92 C 617.96 165.94 607.92 158.97 599.28 162.33 M 689.39 298.43 C 681.29 298.93 676.61 308.82 680.37 315.68 C 684.29 322.14 694.90 322.50 698.97 315.99 C 704.11 309.07 698.26 297.41 689.39 298.43 M 650.19 314.13 C 648.56 314.95 648.02 316.81 647.38 318.37 C 645.06 324.70 643.25 331.54 638.65 336.68 C 634.12 341.54 627.36 342.83 621.57 345.55 C 617.88 347.03 618.14 352.74 621.58 354.35 C 626.28 356.75 631.61 357.90 635.88 361.14 C 641.73 365.24 644.30 372.30 646.15 378.90 C 647.00 381.39 647.47 384.64 650.21 385.80 C 653.05 387.49 656.40 385.17 657.35 382.38 C 659.82 376.33 661.31 369.66 665.59 364.54 C 669.07 360.36 674.16 358.08 679.11 356.15 C 681.60 355.09 684.72 353.98 685.41 351.01 C 686.05 348.71 684.45 346.55 682.44 345.64 C 677.14 342.98 670.92 341.71 666.62 337.36 C 661.65 331.85 659.52 324.58 657.42 317.63 C 656.76 314.49 653.09 312.29 650.19 314.13 M 564.62 385.54 C 558.40 393.66 558.14 404.99 561.53 414.34 C 566.41 428.12 576.30 439.36 586.05 449.97 C 588.38 452.44 591.06 456.12 594.98 454.91 C 602.23 452.82 608.69 448.74 615.37 445.34 C 625.20 439.24 634.94 431.72 639.96 420.97 C 643.63 413.80 643.78 404.88 640.42 397.58 C 636.34 389.52 626.36 386.53 617.93 388.12 C 611.77 388.86 606.96 393.08 602.56 397.08 C 599.58 390.14 595.07 383.28 588.01 380.01 C 580.18 376.25 569.79 378.41 564.62 385.54 M 164.40 523.41 C 160.90 523.28 158.04 525.87 157.07 529.10 C 152.83 540.91 149.19 553.81 139.53 562.50 C 132.38 568.40 123.56 571.73 115.03 575.07 C 110.34 576.84 107.86 583.59 111.54 587.47 C 114.99 590.93 120.17 591.49 124.39 593.64 C 131.50 597.11 139.19 600.42 144.12 606.91 C 149.97 614.60 153.28 623.83 156.25 632.92 C 157.31 636.16 159.32 639.72 163.03 640.26 C 167.17 641.17 171.02 637.95 172.15 634.13 C 176.32 622.64 179.59 609.55 189.77 601.75 C 195.85 596.57 203.35 593.62 210.65 590.63 C 213.24 589.48 216.29 588.38 217.53 585.60 C 219.23 582.10 217.36 577.66 214.02 575.92 C 209.32 573.39 204.15 571.90 199.41 569.45 C 192.71 566.30 186.85 561.40 182.51 555.40 C 177.49 548.00 174.74 539.39 172.29 530.88 C 171.32 527.24 168.62 523.19 164.40 523.41 M 1058.34 563.38 C 1051.69 564.78 1046.17 571.05 1046.34 577.97 C 1046.27 585.48 1052.40 592.39 1060.00 592.76 C 1068.44 594.02 1076.76 586.48 1076.39 577.98 C 1076.40 568.99 1067.23 561.26 1058.34 563.38 M 1035.44 686.44 C 1029.49 696.38 1029.39 708.72 1032.34 719.66 C 1036.92 736.56 1046.27 751.66 1056.24 765.88 C 1058.98 769.38 1061.41 773.87 1065.95 775.22 C 1070.04 775.16 1073.98 773.82 1077.90 772.77 C 1089.93 769.31 1101.70 764.82 1112.58 758.58 C 1123.07 752.49 1133.05 744.22 1137.69 732.68 C 1141.96 722.19 1141.15 708.60 1132.60 700.44 C 1126.41 693.86 1116.81 691.23 1108.03 692.84 C 1101.03 693.63 1094.88 697.29 1089.03 700.96 C 1086.12 691.70 1081.58 682.29 1073.41 676.59 C 1069.00 673.28 1063.43 671.80 1057.98 671.82 C 1048.55 672.27 1039.91 678.23 1035.44 686.44 M 161.13 770.20 C 156.27 774.85 153.78 781.33 153.02 787.92 C 146.34 784.38 138.63 781.70 131.01 783.25 C 124.79 784.36 118.95 788.39 116.48 794.32 C 112.91 802.38 114.66 812.07 119.85 819.03 C 125.18 826.86 133.99 831.25 142.61 834.50 C 153.07 838.21 163.88 841.06 174.87 842.64 C 177.27 843.23 179.83 842.26 180.93 840.00 C 186.26 831.01 191.27 821.75 194.84 811.90 C 197.50 803.88 199.62 795.39 198.75 786.89 C 197.75 779.06 193.78 771.25 187.00 766.94 C 179.03 761.83 167.56 763.20 161.13 770.20 Z" />
<path fill="#fccce2" opacity="1.00" d=" M 927.64 174.61 C 930.50 172.89 933.83 172.51 937.12 172.47 C 938.49 173.64 939.95 174.74 941.17 176.10 C 942.06 178.27 941.73 181.19 939.55 182.48 C 919.30 196.06 900.36 212.54 887.28 233.33 C 878.86 244.73 872.83 257.66 866.26 270.16 C 862.71 278.04 859.25 285.95 856.11 294.00 C 854.36 298.01 852.83 302.46 849.33 305.30 C 846.60 307.43 841.91 307.06 840.32 303.73 C 837.40 297.84 839.31 291.04 840.86 285.04 C 845.07 270.37 852.13 256.71 859.42 243.37 C 869.46 225.16 881.96 208.25 897.03 193.89 C 902.51 188.31 908.82 183.61 915.51 179.58 C 919.24 177.19 923.81 176.82 927.64 174.61 Z" />
<path fill="#fccce2" opacity="1.00" d=" M 239.93 332.77 C 241.73 326.52 243.94 320.07 248.68 315.40 C 250.20 315.45 251.72 315.49 253.24 315.53 C 254.58 317.81 257.31 320.09 256.19 323.00 C 254.48 328.93 252.78 334.87 251.95 341.00 C 251.36 345.80 249.82 350.52 249.87 355.37 C 250.10 356.86 250.38 358.34 250.69 359.82 C 248.74 364.30 249.48 369.24 249.44 373.97 C 249.41 377.37 249.73 380.78 250.80 384.03 C 249.98 388.44 244.54 391.22 245.78 396.01 C 247.88 395.85 249.98 395.69 252.08 395.51 C 252.38 398.30 252.52 401.11 252.94 403.89 C 255.66 416.58 258.41 429.31 262.94 441.51 C 264.16 447.18 267.48 452.65 266.40 458.61 C 264.50 460.81 261.03 460.92 259.09 458.71 C 254.23 453.71 250.69 447.42 248.57 440.79 C 246.42 434.21 243.95 427.72 242.44 420.95 C 238.55 403.57 235.87 385.85 235.59 368.02 C 236.37 356.22 236.44 344.18 239.93 332.77 Z" />
<path fill="#fccce2" opacity="1.00" d=" M 343.34 1039.62 C 359.43 1039.98 375.69 1042.77 390.30 1049.77 C 397.75 1053.38 404.79 1058.69 408.70 1066.15 C 411.98 1072.16 411.28 1079.90 407.35 1085.45 C 400.48 1095.18 389.38 1100.79 378.25 1104.21 C 358.79 1110.19 337.88 1110.63 317.97 1106.76 C 305.27 1104.11 292.35 1099.44 283.10 1089.97 C 278.23 1085.07 275.17 1077.88 276.89 1070.96 C 279.02 1061.72 286.97 1055.42 294.78 1050.89 C 309.58 1042.84 326.63 1039.85 343.34 1039.62 Z" />
<path fill="#fccce2" opacity="1.00" d=" M 899.51 1040.71 C 919.01 1038.42 939.27 1040.13 957.57 1047.54 C 966.02 1051.34 974.57 1056.18 979.80 1064.09 C 982.97 1068.80 983.47 1074.86 982.19 1080.28 C 978.91 1089.90 970.00 1096.01 961.22 1100.21 C 947.10 1106.70 931.44 1109.14 916.00 1109.44 C 903.84 1109.02 891.58 1107.77 879.94 1104.03 C 872.45 1101.46 864.85 1098.46 858.82 1093.18 C 854.47 1089.38 850.33 1084.82 849.05 1079.03 C 846.77 1070.67 851.76 1062.26 857.86 1056.89 C 869.58 1047.18 884.78 1043.13 899.51 1040.71 Z" />
</g>
<g id="#fd6ba9ff">
<path fill="#fd6ba9" opacity="1.00" d=" M 912.63 157.62 C 927.90 148.97 945.39 143.63 963.05 144.53 C 979.85 144.90 996.26 151.19 1009.56 161.34 C 1022.89 171.70 1032.53 186.37 1037.82 202.33 C 1043.55 218.87 1045.37 236.52 1045.20 253.95 C 1045.19 271.83 1042.64 289.59 1039.49 307.16 C 1038.44 313.37 1036.49 319.39 1035.85 325.68 C 1035.40 325.58 1034.49 325.40 1034.03 325.31 C 1032.08 330.22 1030.10 335.12 1027.88 339.91 C 1025.33 345.32 1024.39 351.32 1021.82 356.73 C 1019.14 362.22 1019.05 368.42 1018.55 374.38 C 1016.34 401.98 1010.87 429.20 1004.02 455.98 C 996.64 485.08 987.12 513.60 976.76 541.76 C 952.90 606.12 923.58 668.66 886.73 726.64 C 890.34 729.27 894.05 731.81 898.14 733.65 C 902.09 735.18 904.17 739.08 907.24 741.76 C 938.25 768.47 966.21 798.93 988.93 833.04 C 1009.23 863.24 1025.54 896.07 1037.54 930.42 C 1057.17 988.22 1064.08 1050.38 1056.73 1111.03 C 1052.05 1152.15 1040.86 1192.36 1025.55 1230.74 L 1025.33 1231.28 C 1019.69 1232.05 1014.06 1232.96 1008.39 1233.42 C 1024.99 1193.49 1037.31 1151.53 1042.07 1108.46 C 1047.71 1059.21 1044.10 1008.87 1031.01 961.04 C 1021.30 923.78 1005.39 888.32 985.47 855.43 C 944.17 788.86 884.36 733.66 813.99 699.03 C 742.16 663.29 659.68 648.56 580.02 659.16 C 501.32 668.61 425.94 701.63 364.41 751.39 C 308.92 796.45 265.79 856.40 240.05 923.04 C 216.03 986.06 207.85 1055.28 218.17 1122.02 C 224.23 1160.34 235.75 1197.67 250.93 1233.33 C 245.13 1232.77 239.34 1232.17 233.57 1231.42 L 233.42 1231.00 C 230.25 1221.51 226.20 1212.34 223.16 1202.81 C 215.08 1179.02 208.59 1154.67 204.36 1129.90 C 194.41 1071.03 198.00 1009.96 214.54 952.61 C 233.61 883.95 271.54 821.11 321.10 770.15 C 324.46 766.49 328.72 763.78 331.97 760.02 C 334.05 757.57 336.41 755.40 338.95 753.45 C 340.17 754.67 341.39 755.88 342.65 757.09 C 342.63 755.21 342.20 753.34 341.17 751.77 C 312.93 706.50 289.65 658.21 270.75 608.33 C 255.71 567.69 244.55 525.40 240.24 482.21 C 238.77 480.83 237.12 479.50 236.50 477.51 C 228.32 453.86 221.03 429.75 217.72 404.87 C 214.90 384.10 213.68 362.87 216.98 342.07 C 218.74 330.03 221.79 318.09 227.05 307.08 C 234.85 290.33 247.74 275.74 264.25 267.20 C 283.92 256.77 307.81 254.99 328.94 261.86 C 348.82 268.15 366.14 280.68 381.03 295.03 C 395.72 309.28 408.15 325.70 419.15 342.92 C 421.04 345.65 423.84 347.69 425.38 350.69 C 428.09 355.76 430.66 360.93 432.84 366.26 C 434.82 371.15 437.67 375.63 439.45 380.60 C 440.41 383.17 441.34 385.79 442.91 388.07 C 474.96 430.70 498.09 479.28 517.01 528.96 C 531.74 567.97 544.59 607.83 552.90 648.74 C 556.78 647.70 561.09 647.40 564.28 644.69 C 566.17 644.94 568.09 645.24 570.01 644.97 C 606.90 639.17 644.59 639.10 681.65 643.42 C 688.65 643.63 696.18 643.06 702.36 647.05 C 702.26 645.03 702.19 643.00 702.31 641.00 C 707.09 596.69 716.34 552.96 728.05 509.99 C 738.27 471.64 751.00 433.94 766.33 397.33 C 779.78 365.53 795.18 334.35 815.20 306.12 C 814.10 304.38 813.02 302.65 811.96 300.91 C 816.01 294.57 817.22 287.05 818.63 279.80 C 819.26 275.69 821.59 272.21 823.33 268.53 C 831.37 250.00 841.08 232.17 852.62 215.59 C 868.71 192.77 888.21 171.63 912.63 157.62 M 927.64 174.61 C 923.81 176.82 919.24 177.19 915.51 179.58 C 908.82 183.61 902.51 188.31 897.03 193.89 C 881.96 208.25 869.46 225.16 859.42 243.37 C 852.13 256.71 845.07 270.37 840.86 285.04 C 839.31 291.04 837.40 297.84 840.32 303.73 C 841.91 307.06 846.60 307.43 849.33 305.30 C 852.83 302.46 854.36 298.01 856.11 294.00 C 859.25 285.95 862.71 278.04 866.26 270.16 C 872.83 257.66 878.86 244.73 887.28 233.33 C 900.36 212.54 919.30 196.06 939.55 182.48 C 941.73 181.19 942.06 178.27 941.17 176.10 C 939.95 174.74 938.49 173.64 937.12 172.47 C 933.83 172.51 930.50 172.89 927.64 174.61 M 960.52 197.32 C 959.70 201.35 960.34 205.51 961.41 209.44 C 962.11 211.99 962.58 214.78 964.58 216.72 C 969.12 212.89 975.08 210.55 978.37 205.39 C 980.05 203.02 979.95 199.12 977.09 197.72 C 974.42 196.96 971.91 198.32 969.67 199.58 C 968.60 197.85 967.83 195.76 966.03 194.64 C 963.84 193.90 961.16 195.05 960.52 197.32 M 1005.48 215.42 C 1003.08 219.58 999.95 223.57 995.35 225.38 C 991.25 227.49 986.54 226.17 982.21 227.22 C 982.37 228.77 981.56 230.76 983.04 231.88 C 985.43 234.23 988.04 236.62 988.99 239.96 C 990.73 244.57 989.02 249.38 988.44 254.02 C 987.94 256.29 991.01 258.51 992.88 256.84 C 996.27 254.26 998.76 250.48 1002.84 248.83 C 1007.04 246.39 1012.41 247.87 1016.42 245.00 C 1014.99 241.18 1010.48 239.70 1009.23 235.79 C 1006.88 229.60 1009.37 223.14 1010.66 217.04 C 1011.48 214.04 1006.58 212.80 1005.48 215.42 M 284.45 305.99 C 285.15 309.29 287.08 312.63 285.89 316.07 C 285.00 320.50 280.75 322.76 278.10 326.04 C 280.75 330.39 286.28 327.09 290.20 328.83 C 294.33 330.16 296.06 334.39 298.65 337.45 C 300.62 338.68 302.48 337.00 303.46 335.37 C 302.46 332.72 301.76 329.85 302.36 327.03 C 303.07 322.91 306.18 319.89 308.91 316.98 C 308.14 312.97 303.80 314.61 300.96 314.12 C 295.57 313.35 292.61 308.30 289.71 304.28 C 288.35 302.07 283.82 303.08 284.45 305.99 M 239.93 332.77 C 236.44 344.18 236.37 356.22 235.59 368.02 C 235.87 385.85 238.55 403.57 242.44 420.95 C 243.95 427.72 246.42 434.21 248.57 440.79 C 250.69 447.42 254.23 453.71 259.09 458.71 C 261.03 460.92 264.50 460.81 266.40 458.61 C 267.48 452.65 264.16 447.18 262.94 441.51 C 258.41 429.31 255.66 416.58 252.94 403.89 C 252.52 401.11 252.38 398.30 252.08 395.51 C 257.69 394.77 263.83 395.02 268.63 398.36 C 271.85 400.47 273.75 403.93 276.55 406.47 C 278.62 407.91 280.36 405.49 281.68 404.22 C 279.55 398.87 276.24 393.19 278.23 387.27 C 279.55 380.88 284.51 376.46 288.74 371.90 C 287.65 370.30 286.34 368.30 284.07 368.99 C 276.77 370.03 269.07 368.40 263.24 363.76 C 259.72 361.28 257.54 357.47 254.46 354.55 C 252.94 353.49 251.33 354.95 249.87 355.37 C 249.82 350.52 251.36 345.80 251.95 341.00 C 252.78 334.87 254.48 328.93 256.19 323.00 C 257.31 320.09 254.58 317.81 253.24 315.53 C 251.72 315.49 250.20 315.45 248.68 315.40 C 243.94 320.07 241.73 326.52 239.93 332.77 M 797.92 364.99 C 780.29 399.67 766.48 436.13 754.49 473.09 C 741.86 512.70 731.91 553.15 724.21 594.00 C 720.75 612.51 718.58 631.23 716.08 649.89 C 720.10 652.11 724.78 650.53 728.99 652.03 C 758.81 658.94 787.79 669.34 815.44 682.43 C 836.14 692.62 856.64 703.64 875.02 717.67 C 908.61 663.44 936.56 605.79 959.22 546.17 C 978.45 494.95 995.30 442.35 1002.28 387.91 C 998.57 392.74 995.60 398.09 991.77 402.82 C 987.60 408.53 982.32 413.27 976.93 417.78 C 964.29 427.72 947.91 432.26 931.96 431.76 C 914.36 431.18 897.11 426.58 880.79 420.17 C 863.18 412.79 846.31 402.74 833.40 388.49 C 824.75 378.70 817.80 366.92 815.57 353.91 C 816.27 346.28 815.79 338.58 816.90 330.98 C 809.82 341.88 803.77 353.40 797.92 364.99 M 331.31 337.90 C 331.61 341.37 333.18 344.61 333.93 348.01 C 331.45 349.09 328.80 349.93 326.60 351.54 C 325.37 353.13 326.46 356.08 328.70 355.72 C 331.19 355.15 333.55 354.11 335.98 353.31 C 336.68 356.09 337.43 359.06 339.96 360.76 C 340.91 359.91 341.82 359.03 342.70 358.10 C 342.61 355.45 341.35 353.05 340.44 350.62 C 343.11 349.39 345.84 348.15 347.92 346.01 C 346.97 345.02 346.49 343.22 344.91 343.08 C 342.85 343.42 340.95 344.31 339.02 345.07 C 337.99 342.03 336.78 339.06 335.36 336.18 C 333.94 336.50 332.06 336.34 331.31 337.90 M 432.82 399.76 C 434.54 406.99 439.85 412.63 441.54 419.87 C 445.33 431.43 447.99 443.40 448.71 455.57 C 450.47 473.05 446.17 491.34 435.70 505.57 C 427.50 517.11 416.00 525.92 403.65 532.61 C 385.57 542.22 365.63 548.60 345.19 550.35 C 325.80 552.04 305.55 547.79 289.37 536.70 C 279.01 529.48 270.06 520.24 263.30 509.57 C 260.91 505.85 258.12 502.26 257.10 497.87 C 263.68 541.53 276.80 583.97 293.31 624.85 C 308.24 661.45 325.77 697.01 345.92 731.03 C 348.60 735.70 351.26 740.43 354.54 744.71 C 354.80 744.74 355.33 744.81 355.59 744.84 C 355.82 742.91 355.68 740.96 355.56 739.03 C 406.95 696.89 468.17 666.73 532.96 651.87 C 534.76 651.43 536.61 651.36 538.46 651.28 C 536.72 644.20 535.25 637.05 533.61 629.95 C 518.64 572.52 498.63 516.25 471.79 463.26 C 460.37 441.19 447.90 419.55 432.82 399.76 M 283.70 437.61 C 280.72 439.53 283.49 442.92 284.34 445.24 C 281.30 447.20 278.19 449.06 275.13 450.98 C 275.86 452.34 276.78 453.61 277.70 454.86 C 280.70 453.24 283.81 451.82 286.95 450.48 C 288.28 453.40 289.15 456.77 291.90 458.73 C 292.87 457.63 294.99 456.96 294.67 455.15 C 294.05 452.65 292.81 450.36 291.80 448.00 C 293.80 446.35 298.34 444.83 296.47 441.53 C 294.64 438.97 291.73 441.93 289.72 442.69 C 288.14 440.70 287.03 435.79 283.70 437.61 Z" />
<path fill="#fd6ba9" opacity="1.00" d=" M 288.34 323.16 C 289.94 320.73 290.92 317.99 291.55 315.17 C 293.79 317.25 296.52 318.66 299.49 319.40 C 298.06 321.67 297.28 324.23 297.06 326.91 C 294.48 325.00 291.68 323.18 288.34 323.16 Z" />
<path fill="#fd6ba9" opacity="1.00" d=" M 249.44 373.97 C 249.48 369.24 248.74 364.30 250.69 359.82 C 253.00 367.71 253.13 376.12 250.80 384.03 C 249.73 380.78 249.41 377.37 249.44 373.97 Z" />
<path fill="#fd6ba9" opacity="1.00" d=" M 257.64 366.77 C 263.60 371.52 270.75 374.96 278.46 375.30 C 273.53 380.10 271.19 387.03 272.32 393.85 C 267.06 389.73 260.11 388.42 253.61 389.64 C 257.87 382.85 259.59 374.62 257.64 366.77 Z" />
<path fill="#fd6ba9" opacity="1.00" d=" M 564.62 385.54 C 569.79 378.41 580.18 376.25 588.01 380.01 C 595.07 383.28 599.58 390.14 602.56 397.08 C 606.96 393.08 611.77 388.86 617.93 388.12 C 626.36 386.53 636.34 389.52 640.42 397.58 C 643.78 404.88 643.63 413.80 639.96 420.97 C 634.94 431.72 625.20 439.24 615.37 445.34 C 608.69 448.74 602.23 452.82 594.98 454.91 C 591.06 456.12 588.38 452.44 586.05 449.97 C 576.30 439.36 566.41 428.12 561.53 414.34 C 558.14 404.99 558.40 393.66 564.62 385.54 Z" />
<path fill="#fd6ba9" opacity="1.00" d=" M 1035.44 686.44 C 1039.91 678.23 1048.55 672.27 1057.98 671.82 C 1063.43 671.80 1069.00 673.28 1073.41 676.59 C 1081.58 682.29 1086.12 691.70 1089.03 700.96 C 1094.88 697.29 1101.03 693.63 1108.03 692.84 C 1116.81 691.23 1126.41 693.86 1132.60 700.44 C 1141.15 708.60 1141.96 722.19 1137.69 732.68 C 1133.05 744.22 1123.07 752.49 1112.58 758.58 C 1101.70 764.82 1089.93 769.31 1077.90 772.77 C 1073.98 773.82 1070.04 775.16 1065.95 775.22 C 1061.41 773.87 1058.98 769.38 1056.24 765.88 C 1046.27 751.66 1036.92 736.56 1032.34 719.66 C 1029.39 708.72 1029.49 696.38 1035.44 686.44 Z" />
<path fill="#fd6ba9" opacity="1.00" d=" M 161.13 770.20 C 167.56 763.20 179.03 761.83 187.00 766.94 C 193.78 771.25 197.75 779.06 198.75 786.89 C 199.62 795.39 197.50 803.88 194.84 811.90 C 191.27 821.75 186.26 831.01 180.93 840.00 C 179.83 842.26 177.27 843.23 174.87 842.64 C 163.88 841.06 153.07 838.21 142.61 834.50 C 133.99 831.25 125.18 826.86 119.85 819.03 C 114.66 812.07 112.91 802.38 116.48 794.32 C 118.95 788.39 124.79 784.36 131.01 783.25 C 138.63 781.70 146.34 784.38 153.02 787.92 C 153.78 781.33 156.27 774.85 161.13 770.20 Z" />
<path fill="#fd6ba9" opacity="1.00" d=" M 432.30 882.46 C 451.16 880.92 470.30 887.29 485.00 899.09 C 494.82 907.16 502.53 917.71 507.48 929.40 C 514.90 946.79 515.86 966.33 513.18 984.86 C 510.66 1000.04 504.81 1014.91 494.75 1026.70 C 473.75 1052.33 434.64 1060.71 404.95 1046.06 C 383.92 1036.31 369.04 1016.04 362.84 994.05 C 356.87 971.47 358.16 946.57 368.46 925.43 C 380.20 901.25 405.19 883.56 432.30 882.46 M 428.98 910.59 C 426.18 920.26 423.32 930.12 417.63 938.56 C 409.72 950.42 399.71 961.04 387.61 968.70 C 384.35 971.29 380.04 972.50 377.39 975.82 C 387.04 979.38 395.63 985.14 404.12 990.84 C 418.29 1001.73 430.65 1015.37 438.38 1031.61 C 450.40 1006.77 469.76 985.80 493.07 971.13 C 485.77 967.25 478.50 963.24 471.89 958.23 C 461.79 951.17 453.25 942.17 445.10 933.00 C 439.00 926.06 434.66 917.84 428.98 910.59 Z" />
<path fill="#fd6ba9" opacity="1.00" d=" M 809.17 884.30 C 822.61 882.94 836.67 884.40 848.98 890.26 C 864.02 897.19 876.71 909.16 884.42 923.83 C 894.11 941.75 896.75 962.96 893.87 982.97 C 891.30 1000.83 884.24 1018.46 871.65 1031.63 C 855.42 1049.61 829.74 1057.39 806.05 1054.20 C 789.50 1051.92 773.72 1043.90 762.39 1031.58 C 747.45 1015.63 740.14 993.56 739.50 971.97 C 738.63 950.27 744.93 927.82 759.12 911.11 C 771.59 896.25 789.82 886.25 809.17 884.30 M 815.69 921.68 C 812.61 928.06 809.66 934.60 805.15 940.14 C 793.08 955.42 777.60 968.08 759.77 976.04 C 760.98 976.92 762.23 977.84 763.63 978.49 C 781.02 985.96 796.54 997.98 807.69 1013.32 C 812.34 1019.25 815.44 1026.20 819.94 1032.23 C 832.46 1007.38 851.70 985.66 876.07 971.94 C 867.81 967.12 859.66 961.94 852.93 955.08 C 845.70 948.85 840.28 940.96 834.45 933.50 C 829.05 926.25 824.99 918.13 820.64 910.24 C 818.43 913.80 817.50 917.93 815.69 921.68 Z" />
<path fill="#fd6ba9" opacity="1.00" d=" M 424.47 946.08 C 424.57 942.99 423.24 937.12 428.11 937.37 C 431.13 938.86 430.16 942.66 430.60 945.40 C 432.89 945.05 436.20 943.58 437.58 946.35 C 438.63 950.06 433.55 950.46 431.06 950.85 C 431.27 953.55 431.73 956.27 431.50 959.00 C 430.69 961.11 427.79 961.28 426.57 959.48 C 425.71 956.96 425.51 954.30 425.10 951.70 C 422.29 952.00 417.84 953.88 416.74 950.00 C 416.33 945.73 421.65 946.26 424.47 946.08 Z" />
<path fill="#fd6ba9" opacity="1.00" d=" M 813.33 946.35 C 813.63 943.66 812.16 938.65 816.11 938.20 C 820.08 937.91 819.03 943.07 819.16 945.62 C 821.86 945.52 824.98 945.06 826.51 947.86 C 826.16 948.46 825.45 949.67 825.10 950.27 C 823.11 950.76 821.11 951.24 819.13 951.72 C 819.07 955.36 820.52 960.45 815.93 961.89 C 812.66 959.81 813.30 955.85 813.23 952.54 C 809.94 952.80 806.07 953.44 804.25 949.94 C 805.88 946.28 809.95 946.55 813.33 946.35 Z" />
<path fill="#fd6ba9" opacity="1.00" d=" M 407.55 964.78 C 408.84 964.37 410.54 962.75 411.81 964.09 C 413.09 965.15 413.07 967.03 413.68 968.50 C 415.76 968.59 418.78 967.78 419.61 970.44 C 420.02 973.33 416.42 973.80 414.36 974.04 C 414.37 977.43 416.02 981.89 412.15 983.80 C 408.73 981.85 409.20 977.68 408.62 974.36 C 406.51 974.16 403.70 974.91 402.56 972.58 C 401.41 971.16 403.21 969.84 403.81 968.68 C 405.16 968.66 406.50 968.65 407.86 968.65 C 407.75 967.35 407.65 966.06 407.55 964.78 Z" />
<path fill="#fd6ba9" opacity="1.00" d=" M 792.47 969.05 C 793.13 967.12 793.03 963.61 796.01 964.17 C 798.67 964.07 798.22 967.45 798.68 969.27 C 801.04 968.36 804.75 968.71 804.67 972.01 C 803.67 974.41 801.05 974.41 798.86 974.45 C 798.42 977.42 800.30 981.76 796.98 983.51 C 792.37 983.46 793.47 977.87 793.22 974.83 C 790.48 974.90 787.59 974.71 786.15 972.01 C 787.39 969.46 789.86 968.90 792.47 969.05 Z" />
<path fill="#fd6ba9" opacity="1.00" d=" M 439.96 978.96 C 438.87 976.30 441.05 973.02 443.94 973.16 C 448.00 972.63 451.40 975.23 454.14 977.88 C 456.51 976.18 458.92 974.27 461.89 973.80 C 465.34 972.92 469.23 976.49 468.08 980.04 C 466.90 985.43 462.11 988.69 458.56 992.49 C 456.10 994.87 454.14 997.91 451.03 999.52 C 448.99 999.88 447.41 997.96 446.84 996.21 C 444.54 990.47 441.80 984.87 439.96 978.96 M 444.94 977.68 C 446.98 982.58 449.52 987.26 451.12 992.34 C 455.13 988.06 459.46 984.04 462.94 979.30 C 458.95 979.65 456.74 983.56 453.86 985.87 C 451.12 982.90 448.43 979.80 444.94 977.68 Z" />
<path fill="#fd6ba9" opacity="1.00" d=" M 823.74 980.94 C 822.42 977.46 825.05 972.95 829.01 973.39 C 832.87 973.08 835.50 976.34 837.91 978.84 C 840.40 976.91 842.90 974.77 845.99 973.89 C 848.36 973.03 850.71 974.91 851.57 977.03 C 852.15 979.65 850.59 982.09 849.21 984.19 C 845.20 989.79 839.77 994.14 834.86 998.89 C 833.34 1000.66 829.84 1000.23 829.38 997.75 C 827.83 992.03 825.48 986.58 823.74 980.94 M 828.89 978.53 C 830.24 983.41 832.24 988.07 833.76 992.89 C 836.36 989.78 839.29 986.97 842.28 984.24 C 843.69 982.73 845.70 981.29 845.63 979.00 C 842.70 981.05 840.16 983.58 837.70 986.17 C 834.76 983.64 833.01 979.32 828.89 978.53 Z" />
<path fill="#fd6ba9" opacity="1.00" d=" M 611.25 1020.32 C 614.02 1016.67 618.91 1016.07 623.15 1015.57 C 629.54 1015.05 636.66 1015.08 642.07 1019.04 C 645.96 1021.88 646.24 1027.83 643.49 1031.57 C 640.71 1035.46 636.91 1038.49 633.07 1041.28 C 631.91 1055.20 641.49 1069.38 655.06 1073.10 C 665.43 1076.45 677.40 1070.68 682.12 1061.06 C 683.48 1057.72 683.76 1053.11 687.73 1051.72 C 692.86 1049.62 698.43 1054.68 697.46 1059.99 C 694.40 1073.52 683.10 1084.88 669.42 1087.67 C 659.27 1090.15 648.48 1087.55 639.63 1082.29 C 634.61 1079.20 630.83 1074.53 627.52 1069.74 C 623.44 1074.27 619.72 1079.34 614.42 1082.52 C 608.75 1085.71 602.53 1088.23 595.96 1088.51 C 584.07 1089.12 571.47 1084.47 564.20 1074.75 C 560.76 1070.08 557.74 1064.83 556.82 1059.04 C 556.19 1053.70 562.37 1049.36 567.15 1051.86 C 571.30 1053.66 570.85 1058.82 572.80 1062.24 C 578.54 1073.43 594.27 1077.14 604.91 1070.94 C 615.41 1065.32 622.14 1053.21 621.10 1041.31 C 616.81 1038.60 612.96 1035.04 610.46 1030.58 C 608.68 1027.41 608.86 1023.13 611.25 1020.32 Z" />
<path fill="#fd6ba9" opacity="1.00" d=" M 348.47 1140.44 C 366.23 1126.07 388.08 1116.44 410.92 1114.40 C 433.15 1111.78 456.21 1115.72 476.13 1126.00 C 493.00 1134.38 507.73 1147.00 518.71 1162.30 C 533.24 1183.04 541.08 1208.76 539.04 1234.12 C 534.06 1234.27 529.08 1234.26 524.10 1234.27 C 526.23 1215.87 521.63 1197.22 513.12 1180.94 C 494.76 1146.47 454.75 1125.36 415.97 1128.60 C 393.16 1130.40 371.16 1139.95 353.93 1154.94 C 331.86 1174.65 317.88 1204.44 320.46 1234.29 C 315.55 1234.30 310.64 1234.33 305.72 1234.31 C 303.19 1198.44 320.76 1162.77 348.47 1140.44 Z" />
<path fill="#fd6ba9" opacity="1.00" d=" M 764.91 1133.86 C 798.10 1110.93 843.38 1107.29 879.92 1124.25 C 908.36 1137.09 931.35 1161.42 942.41 1190.61 C 947.88 1204.48 949.61 1219.57 948.58 1234.39 C 943.62 1234.28 938.67 1234.31 933.72 1234.31 C 935.85 1216.95 931.10 1199.29 923.19 1183.91 C 905.68 1149.56 867.40 1127.46 829.01 1128.38 C 810.23 1129.00 791.50 1134.35 775.64 1144.52 C 745.42 1162.94 726.44 1198.86 729.47 1234.28 C 724.53 1234.24 719.59 1234.27 714.65 1234.30 C 712.34 1195.06 732.23 1155.61 764.91 1133.86 Z" />
<path fill="#fd6ba9" opacity="1.00" d=" M 397.15 1211.92 C 397.13 1207.45 404.10 1205.91 405.69 1210.20 C 407.86 1218.12 408.97 1226.30 411.19 1234.22 C 407.72 1234.22 404.24 1234.24 400.77 1234.31 C 399.67 1226.83 397.28 1219.50 397.15 1211.92 Z" />
<path fill="#fd6ba9" opacity="1.00" d=" M 452.41 1210.28 C 453.76 1206.27 460.37 1206.82 461.01 1211.05 C 461.34 1218.87 458.80 1226.47 457.82 1234.19 C 454.23 1234.27 450.65 1234.32 447.06 1234.34 C 448.88 1226.33 450.53 1218.27 452.41 1210.28 Z" />
<path fill="#fd6ba9" opacity="1.00" d=" M 794.58 1208.56 C 796.96 1206.25 801.37 1207.61 802.10 1210.83 C 804.15 1218.55 805.28 1226.47 807.01 1234.27 C 803.58 1234.29 800.15 1234.31 796.72 1234.36 C 795.64 1227.90 794.12 1221.51 793.31 1215.01 C 793.19 1212.85 792.66 1210.12 794.58 1208.56 Z" />
<path fill="#fd6ba9" opacity="1.00" d=" M 850.74 1208.67 C 852.81 1207.47 855.80 1208.06 857.01 1210.24 C 857.85 1212.39 857.40 1214.76 857.14 1217.00 C 856.23 1222.77 855.04 1228.49 854.03 1234.25 C 850.51 1234.29 846.99 1234.32 843.48 1234.37 C 845.15 1227.31 846.54 1220.20 848.24 1213.16 C 848.68 1211.50 849.19 1209.63 850.74 1208.67 Z" />
</g>
</svg>
